<?xml version="1.0" encoding="utf-8"?>
<!-- Generator: Adobe Illustrator 18.1.0, SVG Export Plug-In . SVG Version: 6.00 Build 0)  -->
<svg version="1.1" xmlns="http://www.w3.org/2000/svg" xmlns:xlink="http://www.w3.org/1999/xlink" x="0px" y="0px"
	 viewBox="0 0 364.3 174.9" enable-background="new 0 0 364.3 174.9" xml:space="preserve">
<g id="Layer_3" display="none">
	<rect x="-146.7" y="-80.3" display="inline" fill="#1465B0" stroke="#FFFFFF" stroke-width="5" width="413.5" height="251.5"/>
</g>
<g id="Layer_1">
	<path display="none" fill-rule="evenodd" clip-rule="evenodd" fill="#904442" stroke="#904442" stroke-width="1.2" d="M27.1-25.2
		h14.2l-11.5,9.1l4.6,14.6l-12.7-8.6L9-1.5l4-14.6L2.1-25.2h14.2l5.4-14.5L27.1-25.2z M21.7-19L5.1-24.1L4.9-24l9.2,7.5L21.7-19z
		 M21.7-19L10.4-3.9l0.1,0.3l11.1-7.7V-19z M21.7-19v-17.8h-0.1l-4.4,12.2L21.7-19z M21.7-19l16.7-5.1v-0.1H26L21.7-19z M21.7-19
		L32.6-4L32.8-4l-4.2-12.9L21.7-19z"/>
	<text transform="matrix(1 0 0 1 -1.083 39.2627)" display="none"><tspan x="0" y="0" display="inline" fill="#2C549D" font-family="'CrilleeBT-Italic'" font-size="21">Natural Resources</tspan><tspan x="0" y="18" display="inline" fill="#2C549D" font-family="'CrilleeBT-Italic'" font-size="21">Information System</tspan></text>
</g>
<g id="Layer_2">
	<g display="none">
		<path display="inline" fill="none" stroke="#2C549D" stroke-width="5" d="M45.4-0.2L33.3-9.6L17.9-0.1l7.5-16L13.9-26.2l16.8-0.5
			L39-42.5l2.8,15.7l16.6,0.4l-15,10.2L45.4-0.2z"/>
	</g>
	<rect x="-83.7" y="65.9" display="none" fill="#FFFFFF" width="108" height="60.7"/>
	<g>
		<g>
			<path fill="#FFFFFF" d="M44.8,91.7C48.2,83.4,53,75.4,59.2,68c0.4,0.9,0.9,1.7,1.3,2.6C54.5,78,49.9,86,46.7,94.2
				C46.1,93.4,45.4,92.5,44.8,91.7z"/>
		</g>
		<g>
			<path fill="#FFFFFF" d="M42.2,125c-1-0.9-1.9-1.9-2.9-2.9c-0.4-9,1.1-18.4,4.4-27.5c0.6,0.8,1.3,1.7,1.9,2.5
				C42.5,106.5,41.3,116,42.2,125z"/>
		</g>
		<g>
			<path fill="#FFFFFF" d="M42.8,129.1c1.3,7.4,4,14.5,8.4,20.9c-1.7-0.9-3.3-1.8-4.8-2.8c-3.6-6.5-5.8-13.6-6.6-20.9
				C40.7,127.2,41.7,128.2,42.8,129.1z"/>
		</g>
		<g>
			<path fill="#FFFFFF" d="M62.3,68.4c-0.4-0.8-0.9-1.7-1.3-2.6c4.3-4.8,9.2-9.4,14.6-13.5v3.4C70.7,59.6,66.3,63.9,62.3,68.4z"/>
		</g>
		<g>
			<path fill="#FFFFFF" d="M18.4,90.1c-1.2,5.4-1.9,11.1-1.9,16.9h-0.1c-0.9-3.3-1.6-6.8-1.9-10.3c0.5-4.2,1.4-8.4,2.6-12.4
				C17.5,86.2,17.9,88.2,18.4,90.1z"/>
		</g>
		<g>
			<path fill="#FFFFFF" d="M31.9,60.8c-0.2-1.2-0.4-2.4-0.6-3.6c5.5-6.8,12.1-12.7,19.5-17.2c0.1,1,0.3,1.9,0.4,2.9
				C43.8,47.6,37.3,53.7,31.9,60.8z"/>
		</g>
		<g>
			<path fill="#FFFFFF" d="M19,78.8c2.5-6.7,5.9-13,10-18.6c0.2,1.2,0.4,2.5,0.7,3.7C25.5,70,22.2,77,19.9,84.4
				C19.5,82.5,19.2,80.7,19,78.8z"/>
		</g>
		<g>
			<path fill="#FFFFFF" d="M53.4,38.5c6.9-3.8,14.4-6.6,22.3-8v2.7c-7.8,1.5-15.2,4.3-21.9,8.1C53.6,40.4,53.5,39.4,53.4,38.5z"/>
		</g>
		<g>
			<path fill="#FFFFFF" d="M53.8,41.3c1.4,9.1,3.9,17.4,7.3,24.5c0.4,0.9,0.9,1.7,1.3,2.6C66,75.3,70.5,81,75.7,84.8V88
				c-5.8-3.9-11-10-15.2-17.5c-0.5-0.8-0.9-1.7-1.3-2.6c-3.7-7.3-6.4-15.9-7.9-25.2c-0.2-0.9-0.3-1.9-0.4-2.9
				c-0.5-3.6-0.8-7.4-0.9-11.2c0.9-0.5,1.8-0.9,2.7-1.4c0.1,3.8,0.3,7.5,0.7,11.1C53.5,39.4,53.6,40.4,53.8,41.3z"/>
		</g>
		<g>
			<path fill="#FFFFFF" d="M31.3,57.1c0.2,1.2,0.3,2.4,0.6,3.6c2,11.4,6.5,21.9,12.9,30.9c0.6,0.9,1.2,1.7,1.9,2.5
				c7.6,9.8,17.5,17.5,29,22.3v2.9c-11.8-4.7-22.1-12.4-30-22.2c-0.7-0.8-1.3-1.7-1.9-2.5c-6.7-9-11.6-19.4-14-30.9
				c-0.3-1.2-0.5-2.4-0.7-3.7c-0.7-4-1-8.2-1-12.4c0.9-1.2,1.8-2.3,2.7-3.4C30.6,48.7,30.8,53,31.3,57.1z"/>
		</g>
		<g>
			<path fill="#FFFFFF" d="M19,78.8c0.2,1.9,0.5,3.8,0.9,5.6c2.8,14.5,9.7,27.6,19.4,37.8c0.9,1,1.9,1.9,2.9,2.9
				c9.2,8.6,20.7,14.8,33.5,17.5v2.7c-12.4-2.5-23.6-8.2-32.9-16.2c-1.1-0.9-2.1-1.8-3.1-2.8c-10.1-9.7-17.5-22.2-21.2-36.2
				c-0.5-1.9-0.9-3.8-1.3-5.8c-0.6-3.5-1.1-7-1.2-10.6c0.7-3.1,1.6-6.1,2.7-9C18.3,69.4,18.5,74.1,19,78.8z"/>
		</g>
		<g>
			<path fill="#FFFFFF" d="M11.5,89.1c0-8.8,1.6-17.2,4.5-25c0.1-0.3,0.2-0.5,0.3-0.8c9.5-24.5,32.2-42.5,59.4-45.2v2.7
				c-8.2,0.8-15.9,3.1-23,6.6c-0.9,0.4-1.8,0.9-2.7,1.4c-7.3,4-13.9,9.3-19.3,15.6c-0.9,1.1-1.9,2.2-2.7,3.4
				c-3.9,5.1-7,10.8-9.4,16.9c-1.1,2.9-2,5.9-2.7,9c-1.1,5-1.8,10.1-1.8,15.4c0,2.6,0.2,5.1,0.4,7.6c0.4,3.5,1,7,1.9,10.3
				c4.6,16.8,15.4,31.1,29.8,40.2c1.6,1,3.2,1.9,4.8,2.8c7.5,3.9,15.8,6.5,24.5,7.4v2.7C39.7,156.5,11.5,126,11.5,89.1z"/>
		</g>
	</g>
	<g>
		<path fill="#FFFFFF" d="M139.2,76.2h2.1c-0.1,0.5-0.3,1.2-0.5,2.2c-1.8,8.7-4.5,13-8.2,13h-12.5l-14.7,60.3
			c-0.1,0.4-0.2,0.8-0.3,1.1c-0.1,0.4-0.1,0.7-0.1,1.1c0,1.2,0.4,2.1,1.1,2.8c0.8,0.7,1.8,1.1,3.3,1.2l-0.5,2.2H93.8
			c-2.1,0-3.6-0.3-4.7-1.1c-1-0.7-1.5-1.8-1.5-3.3c0-0.5,0-0.9,0.1-1.2c0-0.3,0.1-0.5,0.2-0.8l14.8-62.3H91c-1.6,0-2.7,0.2-3.5,0.7
			c-0.8,0.5-1.3,1.3-1.5,2.5h-2.2c0.2-0.6,0.3-1.5,0.6-2.6c1.9-8.7,5.2-13.1,9.8-13.1h39.9c1.6,0,2.8-0.2,3.6-0.6
			C138.4,78,138.9,77.3,139.2,76.2z"/>
		<path fill="#FFFFFF" d="M144.1,79h16.3c2.7,0,4.8,0.7,6.3,2c1.5,1.3,2.8,4,4,8.2L184,134l11.1-48c0-0.2,0.1-0.3,0.1-0.5
			c0-0.2,0-0.4,0-0.8c0-1-0.3-1.8-1-2.4c-0.7-0.6-1.6-0.9-2.8-1.1l0.4-2.2h13.8c1.6,0,2.8,0.3,3.6,0.8c0.8,0.5,1.2,1.3,1.2,2.4
			c0,0.5,0,0.8-0.1,1.2c0,0.3-0.1,0.6-0.2,0.9l-18,75.8h-10c-2.2,0-4.2-0.8-6-2.4c-1.7-1.6-3.1-3.9-4-6.8l-14.3-46.1l-11.4,48.5
			c0,0,0,0.1-0.1,0.3c-0.1,0.6-0.2,1-0.2,1.3c0,1,0.3,1.8,1,2.3c0.7,0.5,1.8,0.8,3.3,0.9l-0.5,2.2h-15.5c-1.2,0-2.2-0.3-2.9-1
			c-0.7-0.6-1-1.5-1-2.6c0-0.2,0-0.3,0.1-0.6c0.1-0.2,0.1-0.5,0.1-0.8l16.5-69c0.1-0.4,0.2-0.7,0.2-0.9c0-0.2,0-0.3,0-0.5
			c0-1-0.4-1.8-1.1-2.5c-0.7-0.6-1.7-1-3-1.2L144.1,79z"/>
		<path fill="#FFFFFF" d="M221.9,79h38.3c5.5,0,9.7,1.4,12.6,4.1c2.9,2.8,4.4,6.7,4.4,12c0,8.1-2.1,14.8-6.3,20.1
			c-4.2,5.3-9.6,8-16.1,8h-0.2l7.1,20.6c0.5,1.3,1.1,2.3,1.9,2.9c0.8,0.6,1.8,0.9,3.1,0.9c0.4,0,0.9,0,1.3-0.1
			c0.5-0.1,1-0.1,1.5-0.3c-0.8,4.7-1.4,7.8-1.8,9.2c-0.4,1.4-0.9,2.3-1.4,2.8c-0.4,0.3-1.2,0.5-2.5,0.7c-1.3,0.2-3.2,0.2-5.7,0.2
			c-3.7,0-6.1-0.3-7.2-1c-1.1-0.7-2-1.9-2.5-3.7l-9-30.3h-5.9l-6.7,27.9c0,0.2-0.1,0.3-0.1,0.5c0,0.2,0,0.5,0,0.9
			c0,1.1,0.4,2,1.1,2.6c0.7,0.6,1.8,1,3.2,1l-0.6,2.2h-17.7c-1.3,0-2.3-0.3-3-0.9c-0.7-0.6-1.1-1.5-1.1-2.6c0-0.3,0.1-0.8,0.2-1.4
			c0-0.1,0-0.2,0-0.2L225.1,86c0.1-0.4,0.2-0.7,0.2-0.9c0-0.2,0-0.3,0-0.5c0-1-0.3-1.8-1-2.4c-0.7-0.6-1.7-1-2.9-1.1L221.9,79z
			 M241.7,90.5l-5.4,22.6h10.2c4.3,0,7.6-1.4,9.8-4.2c2.2-2.8,3.4-6.9,3.4-12.3c0-2.1-0.6-3.6-1.9-4.5c-1.3-1-3.2-1.5-5.9-1.5H241.7
			z"/>
		<path fill="#FFFFFF" d="M290.4,79h18c1.2,0,2.1,0.2,2.8,0.7c0.6,0.5,1,1.1,1,2c0,0.2,0,0.3-0.1,0.5c0,0.2-0.1,0.5-0.2,0.8
			l-17.1,69.6c0,0.2-0.1,0.4-0.1,0.6c0,0.2,0,0.5,0,0.9c0,1.1,0.4,2,1.1,2.7c0.7,0.6,1.8,1,3.3,1.1l-0.5,2.2h-17.8
			c-1.3,0-2.3-0.3-3-0.9c-0.7-0.6-1.1-1.5-1.1-2.6c0-0.3,0.1-0.8,0.2-1.4c0-0.1,0-0.2,0-0.2l16.6-68.9c0.1-0.4,0.2-0.7,0.2-0.9
			c0-0.2,0-0.3,0-0.5c0-0.9-0.4-1.7-1.1-2.3c-0.7-0.6-1.7-1-3-1.2L290.4,79z"/>
		<path fill="#FFFFFF" d="M340.3,79h24l-1.8,8.3c-0.3,1.6-1,2.8-1.9,3.6c-0.9,0.8-2.1,1.2-3.7,1.2h-13.5c-2.9,0-5.3,1-7.1,2.9
			c-1.8,1.9-2.6,4.4-2.6,7.5c0,1.2,0.4,2.2,1.2,3.1c0.8,0.9,2.3,1.9,4.3,2.9l12.2,5.8c3.3,1.6,5.7,3.6,7.3,6.1
			c1.5,2.5,2.3,5.6,2.3,9.4c0,9.6-2.4,17.1-7.2,22.4c-4.8,5.3-11.5,7.9-20.3,7.9h-17.1c-4.4,0-7.3-0.3-8.8-1
			c-1.5-0.7-2.2-1.9-2.2-3.6c0-0.3,0.1-0.9,0.2-1.7c0-0.2,0.1-0.3,0.1-0.4l2.5-10.5h2c0.2,1.7,0.7,2.9,1.5,3.6
			c0.9,0.7,2.3,1.1,4.5,1.1H330c4.3,0,7.8-1.3,10.5-4c2.7-2.7,4-6.1,4-10.4c0-1.6-0.4-2.9-1.3-4c-0.8-1.1-2.2-2-4.1-2.9l-14.1-6.2
			c-2.7-1.3-4.7-2.9-6-5c-1.2-2.1-1.9-4.9-1.9-8.3c0-8.6,2-15.4,6.1-20.3C327.5,81.5,333.2,79,340.3,79z"/>
	</g>
	<g>
		<g>
			<path fill="#FFFFFF" d="M103,18c-1.9,0.1-18.7,0.5-18.7,0.5s11.1,9.7,12.8,11.3c-1,2.2-8.8,18.8-8.8,18.8s16.2-10,18.1-11.2
				c1.7,1.3,13.4,10.4,13.4,10.4s-2-15.7-2.2-17.7c1.7-1.1,17.4-11.8,17.4-11.8S118.2,18,115.7,18c-0.4-2.5-3.3-18-3.3-18
				S103.9,16.3,103,18z M105.4,21.8c0,0,3.1-5.9,5.3-10c0.7,4,1.8,10,1.8,10s6.1,0.1,10.3,0.2c-3.9,2.6-9.3,6.3-9.3,6.3
				s0.8,6.5,1.3,10.7c-3.2-2.5-8.1-6.3-8.1-6.3s-5.3,3.3-9.2,5.7c1.9-4,4.5-9.6,4.5-9.6s-4.6-4-7.6-6.7
				C98.7,22,105.4,21.8,105.4,21.8z"/>
		</g>
	</g>
</g>
</svg>
