<?xml version="1.0" standalone="no"?>
<!DOCTYPE svg PUBLIC "-//W3C//DTD SVG 20010904//EN"
 "http://www.w3.org/TR/2001/REC-SVG-20010904/DTD/svg10.dtd">
<svg version="1.0" xmlns="http://www.w3.org/2000/svg"
 width="1086.000000pt" height="1086.000000pt" viewBox="0 0 1086.000000 1086.000000"
 preserveAspectRatio="xMidYMid meet">
<metadata>
Created by potrace 1.11, written by Peter Selinger 2001-2013
</metadata>
<g transform="translate(0.000000,1086.000000) scale(0.100000,-0.100000)"
fill="#000000" stroke="none">
<path d="M7305 9500 c-227 -11 -368 -55 -466 -147 -56 -52 -93 -111 -119 -191
-26 -76 -25 -119 5 -230 35 -130 62 -195 188 -447 166 -333 227 -523 233 -730
3 -111 -20 -427 -41 -578 -45 -310 -147 -611 -267 -790 l-44 -66 -21 21 c-12
11 -37 30 -56 42 -20 11 -59 37 -87 56 -29 19 -66 39 -83 45 -30 9 -32 14 -35
60 -2 31 -10 58 -21 70 -10 11 -27 36 -36 55 -10 19 -31 51 -46 70 -35 41 -35
52 -7 110 13 25 25 65 28 89 4 40 10 48 60 83 38 26 74 42 115 50 54 10 64 15
98 58 32 42 37 55 37 100 0 79 -18 136 -46 149 -41 18 -145 12 -253 -15 -105
-26 -157 -30 -247 -19 -41 5 -60 3 -92 -14 -23 -12 -49 -21 -59 -21 -11 0 -41
23 -68 51 -133 135 -451 294 -630 315 -60 7 -281 -9 -375 -27 -30 -6 -107 -17
-170 -24 -63 -8 -133 -20 -155 -28 -42 -16 -55 -14 -55 7 0 28 -51 36 -223 36
l-172 0 -78 50 c-64 41 -86 50 -122 50 -83 0 -91 -62 -27 -220 16 -41 35 -90
41 -107 6 -18 16 -46 23 -62 10 -24 9 -35 -1 -55 -12 -22 -12 -29 3 -51 10
-14 24 -29 31 -31 8 -3 26 -26 40 -52 l25 -45 -88 -91 c-128 -131 -158 -202
-113 -270 14 -21 17 -35 11 -47 -9 -16 -14 -16 -57 -3 -30 9 -50 11 -57 4 -11
-11 0 -15 54 -24 l35 -6 0 -55 c0 -38 5 -59 15 -65 12 -8 11 -14 -7 -47 -17
-30 -30 -40 -60 -46 -65 -14 -113 -30 -113 -39 0 -11 17 -10 38 1 9 5 35 12
58 15 41 7 41 7 42 -25 2 -61 14 -114 32 -134 24 -28 80 -125 130 -224 38 -76
40 -84 26 -100 -23 -25 -20 -37 4 -16 18 16 20 16 20 2 0 -9 -44 -68 -97 -130
-54 -63 -103 -124 -110 -138 -6 -13 -28 -59 -47 -101 -19 -43 -65 -124 -102
-180 -100 -152 -147 -253 -207 -448 -52 -168 -94 -267 -136 -319 l-19 -25
-143 13 c-79 7 -223 25 -319 41 -96 16 -202 32 -235 35 -33 3 -118 16 -190 28
-113 19 -169 22 -430 22 -281 0 -305 -1 -383 -23 l-82 -22 -43 22 c-41 23 -49
23 -427 26 -270 2 -397 0 -426 -8 -23 -7 -63 -29 -89 -51 -26 -21 -63 -43 -84
-49 -40 -11 -107 -70 -148 -131 -20 -31 -36 -42 -72 -51 -69 -17 -179 -132
-204 -212 -10 -32 -16 -60 -13 -63 3 -3 25 12 49 34 49 45 68 57 110 67 l28 7
-7 -63 c-5 -48 -12 -67 -28 -78 -49 -34 -77 -78 -105 -165 -27 -80 -36 -122
-32 -148 1 -5 31 23 69 61 37 38 77 74 89 81 20 10 24 7 47 -32 14 -24 37 -54
51 -67 29 -27 31 -42 10 -60 -26 -22 -64 -97 -71 -141 l-7 -44 44 41 c66 61
109 94 123 94 7 0 33 -17 57 -39 89 -78 205 -119 304 -107 65 7 177 57 203 91
20 25 22 25 151 24 126 -1 133 0 178 26 26 16 66 45 88 67 36 32 49 38 86 38
109 1 259 52 312 108 23 24 39 31 92 36 36 4 80 16 99 27 l34 20 81 -41 c98
-50 369 -140 584 -194 128 -33 431 -122 497 -147 78 -29 357 -96 479 -114 108
-16 162 -14 273 11 54 13 80 14 140 5 40 -7 87 -16 105 -22 25 -8 37 -7 57 6
41 27 55 59 73 165 9 56 24 111 32 121 26 31 103 35 188 9 89 -27 148 -65 233
-150 l65 -65 -1 -85 c0 -47 -5 -101 -9 -120 l-8 -35 34 27 35 26 60 -29 c33
-16 76 -29 97 -29 21 0 39 -5 41 -12 19 -73 53 -157 69 -175 l20 -22 -31 -48
c-17 -26 -27 -49 -22 -51 5 -2 35 8 67 22 56 26 57 26 106 10 58 -19 135 -14
152 10 15 20 25 21 25 1 0 -18 68 -85 87 -85 19 0 17 -12 -14 -74 -15 -31 -24
-58 -20 -62 7 -7 91 52 126 90 19 20 34 26 68 26 42 0 45 2 61 40 14 32 21 40
37 35 11 -2 34 -5 51 -5 l31 0 -8 -47 c-10 -63 -11 -93 -1 -93 4 0 31 33 59
74 l53 73 117 12 c65 6 159 17 208 23 157 19 147 22 166 -47 24 -87 15 -135
-54 -293 -39 -92 -100 -195 -153 -260 -27 -33 -27 -33 -15 -115 6 -45 11 -98
11 -117 0 -35 66 -180 82 -180 4 0 10 12 14 27 12 56 16 63 30 63 37 0 54 -20
54 -64 0 -44 26 -136 39 -136 4 0 24 28 44 62 l37 63 72 -5 73 -5 25 -51 c14
-28 35 -64 48 -80 28 -34 36 -26 53 56 6 30 13 60 14 66 2 6 21 14 43 18 22 3
60 15 85 25 l45 19 21 -21 c11 -12 27 -39 36 -60 8 -20 19 -37 24 -37 12 0 25
122 17 162 -4 22 -2 34 10 43 15 10 15 26 6 146 -6 76 -18 153 -27 179 -36 95
-42 177 -37 492 l5 303 80 60 c77 58 334 318 432 437 l47 58 53 -6 c35 -4 70
-1 107 10 66 19 68 19 68 5 0 -6 23 -66 51 -132 36 -85 71 -147 113 -202 119
-157 135 -170 381 -310 66 -38 152 -90 192 -117 40 -26 75 -48 78 -48 10 0
286 -190 375 -259 216 -165 393 -321 480 -422 52 -60 59 -74 79 -155 11 -49
30 -163 41 -254 29 -245 52 -320 135 -435 57 -80 117 -133 203 -178 37 -20 78
-48 92 -62 26 -27 89 -59 98 -50 3 3 -7 19 -23 35 l-29 30 25 0 c13 0 31 4 39
10 10 6 25 3 47 -12 36 -21 123 -48 161 -48 34 0 26 17 -13 30 -39 13 -41 17
-21 46 13 19 20 20 68 12 99 -17 148 -20 148 -10 0 6 -13 23 -29 38 l-29 27
20 43 c12 23 32 48 45 55 12 7 23 16 23 21 0 5 9 7 20 4 11 -3 29 -9 40 -12
28 -8 25 13 -8 51 -25 27 -30 44 -35 106 -10 133 -32 174 -182 329 -122 127
-134 143 -160 211 -34 92 -159 360 -232 499 -78 146 -149 249 -187 269 -72 37
-128 115 -286 400 -78 141 -151 250 -270 406 -215 283 -242 330 -320 580 -104
335 -165 497 -245 654 -104 205 -183 307 -475 605 -172 176 -277 264 -424 356
-134 83 -209 147 -235 199 -37 72 -72 206 -86 330 -10 85 -15 228 -15 441 0
370 -7 445 -54 616 -19 71 -46 179 -61 239 -14 61 -33 137 -42 170 -32 115
-362 736 -430 807 -25 27 -26 29 -19 119 8 104 25 145 83 201 118 114 372 137
708 63 150 -32 312 -92 495 -183 52 -25 98 -48 101 -50 4 -2 14 18 22 43 15
42 15 48 -4 90 -55 125 -390 280 -734 341 -84 15 -102 15 -330 4z m-2702
-2620 c29 -14 36 -47 15 -68 -7 -7 -31 -12 -53 -12 -34 0 -44 4 -53 24 -8 18
-8 28 1 39 13 16 48 37 57 33 3 -1 17 -8 33 -16z m1013 -158 c17 -11 25 -41
18 -68 -5 -21 -12 -24 -55 -24 -57 0 -79 23 -58 63 15 29 28 37 59 37 14 0 30
-4 36 -8z m-1092 -741 c4 -5 1 -22 -4 -37 -6 -16 -11 -61 -11 -102 0 -73 0
-74 -20 -56 -11 9 -31 55 -46 102 -22 70 -24 85 -12 93 18 12 86 12 93 0z
m683 -125 c18 -17 -77 -183 -97 -171 -6 3 -10 51 -10 105 l0 98 51 -13 c28 -8
54 -16 56 -19z m-595 -309 c12 -23 11 -24 -33 -32 -42 -8 -48 0 -59 83 l-6 52
44 -42 c24 -24 48 -51 54 -61z m438 -46 c-6 -23 -16 -41 -22 -41 -16 0 -79 41
-76 50 2 4 26 26 53 47 l50 40 3 -28 c2 -15 -2 -46 -8 -68z m-195 6 l50 -15
-70 0 c-78 0 -139 11 -115 21 50 19 50 19 135 -6z m-3635 -941 l0 -44 -37 13
c-21 8 -58 11 -83 8 l-45 -5 25 21 c14 12 36 24 50 27 14 3 36 10 50 14 39 13
40 12 40 -34z m-600 -88 c0 -20 -4 -26 -15 -22 -28 11 -83 -7 -129 -42 l-47
-35 7 28 c8 35 48 89 77 105 67 36 107 23 107 -34z m-260 -41 c0 -8 -5 -39
-11 -70 -11 -52 -14 -57 -39 -57 -44 0 -118 -26 -156 -55 l-35 -27 15 36 c37
88 141 178 214 185 6 0 12 -5 12 -12z m-25 -333 l-1 -56 -54 -39 c-30 -21 -76
-60 -102 -86 -57 -55 -59 -46 -18 70 33 89 70 136 125 155 49 17 51 15 50 -44z
m4695 -199 c0 -7 -18 -25 -41 -41 -22 -15 -49 -39 -60 -52 -21 -27 -26 -14 -8
21 32 63 109 114 109 72z m-4521 -27 c23 -63 24 -62 -28 -81 -29 -10 -73 -39
-107 -69 -47 -44 -56 -48 -49 -28 12 41 46 92 99 148 54 57 72 64 85 30z
m4544 -268 c-5 -20 -79 -91 -136 -132 l-30 -22 7 29 c15 57 100 145 141 145
18 0 22 -4 18 -20z m328 -312 c-9 -30 -31 -61 -72 -101 -51 -50 -105 -85 -115
-74 -2 1 16 30 39 64 24 33 51 79 61 100 18 42 73 79 90 62 6 -5 4 -25 -3 -51z
m649 -123 c0 -36 -29 -99 -64 -140 l-25 -30 5 40 c3 22 10 53 15 69 5 16 9 41
9 56 0 17 8 33 23 43 26 17 37 7 37 -38z m-315 -26 c11 -16 -15 -100 -41 -134
-12 -16 -36 -38 -52 -47 l-29 -17 32 78 c46 116 72 150 90 120z m680 -779 c16
-31 21 -165 7 -188 -14 -22 -62 79 -62 129 0 89 25 116 55 59z m729 -62 c29
-27 46 -98 37 -153 l-6 -37 -35 48 c-66 88 -72 102 -65 134 8 37 33 40 69 8z
m-525 -47 c17 -53 13 -83 -21 -152 l-32 -63 -12 29 c-16 36 -18 148 -4 173 5
9 15 30 20 46 9 25 13 27 24 15 7 -8 18 -29 25 -48z m255 -1 c14 -17 28 -46
32 -65 6 -32 -10 -157 -23 -178 -7 -12 -50 49 -69 100 -17 45 -15 115 6 153
14 27 24 25 54 -10z m3791 -538 c19 -14 76 -92 67 -92 -5 0 -35 11 -66 25 -47
21 -56 29 -56 50 0 19 5 25 23 25 12 0 27 -4 32 -8z m-106 -214 c3 -10 19 -25
56 -52 19 -15 19 -15 -10 -15 -51 0 -100 30 -103 63 -3 27 -2 28 25 22 15 -4
30 -12 32 -18z m-177 -88 c36 -36 33 -44 -11 -29 -27 10 -51 34 -51 53 0 16
35 2 62 -24z m-177 -49 c-9 -8 -55 42 -55 58 1 11 11 4 30 -18 16 -19 27 -37
25 -40z"/>
</g>
</svg>
