<?xml version="1.0" standalone="no"?>
<!DOCTYPE svg PUBLIC "-//W3C//DTD SVG 20010904//EN"
 "http://www.w3.org/TR/2001/REC-SVG-20010904/DTD/svg10.dtd">
<svg version="1.0" xmlns="http://www.w3.org/2000/svg"
 width="1080.000000pt" height="1080.000000pt" viewBox="0 0 1080.000000 1080.000000"
 preserveAspectRatio="xMidYMid meet">
<metadata>
Created by potrace 1.11, written by Peter Selinger 2001-2013
</metadata>
<g transform="translate(0.000000,1080.000000) scale(0.100000,-0.100000)"
fill="#000000" stroke="none">
<path d="M0 10685 l0 -115 266 0 266 1 -18 27 c-9 15 -30 43 -46 63 -15 20
-28 40 -28 44 0 3 -13 18 -30 32 -16 13 -30 33 -30 44 0 18 -10 19 -190 19
l-190 0 0 -115z"/>
<path d="M517 10783 c4 -9 13 -24 20 -32 36 -42 63 -80 63 -89 0 -6 18 -29 40
-51 l41 -41 735 0 736 0 -6 26 c-4 14 -18 43 -32 65 -13 22 -33 61 -43 87
l-19 47 -771 3 c-718 2 -770 1 -764 -15z"/>
<path d="M2195 10778 c4 -13 13 -28 21 -34 8 -6 14 -17 14 -24 0 -6 11 -34 25
-62 14 -27 25 -56 25 -63 0 -9 18 -16 53 -20 28 -3 367 -5 752 -3 l700 3 -3
25 c-2 14 -8 30 -12 35 -5 6 -11 28 -15 50 -4 22 -11 57 -16 78 l-10 37 -770
0 -770 0 6 -22z"/>
<path d="M3873 10778 c3 -13 14 -62 23 -110 10 -53 22 -89 31 -92 19 -8 1462
-8 1474 -1 5 4 9 55 9 116 l0 109 -771 0 -771 0 5 -22z"/>
<path d="M5542 10688 l3 -113 55 -5 c114 -11 1419 -5 1430 6 6 6 15 36 20 68
5 32 13 63 18 70 5 6 12 28 16 49 l7 37 -776 0 -776 0 3 -112z"/>
<path d="M7220 10778 c0 -13 -12 -62 -26 -111 -15 -48 -24 -90 -20 -95 9 -8
1382 -15 1442 -7 40 6 41 7 95 113 30 59 56 110 57 115 2 4 -345 7 -772 7
l-776 0 0 -22z"/>
<path d="M8883 10751 c-13 -26 -23 -51 -23 -55 0 -4 -11 -22 -25 -40 -14 -18
-28 -47 -31 -64 l-6 -32 738 0 739 0 22 33 c13 18 31 42 40 53 19 20 94 121
107 142 6 9 -150 12 -766 12 l-773 -1 -22 -48z"/>
<path d="M10573 10777 c-6 -12 -20 -34 -31 -47 -12 -14 -39 -47 -61 -73 -48
-56 -63 -82 -54 -91 3 -3 89 -6 190 -6 l183 0 0 120 0 120 -108 0 c-103 0
-109 -1 -119 -23z"/>
<path d="M0 10170 l0 -330 540 0 c477 0 573 4 533 22 -5 2 -30 34 -58 71 -27
38 -60 81 -72 97 -13 15 -23 33 -23 39 0 6 -4 11 -10 11 -5 0 -24 21 -42 47
-35 51 -50 71 -85 111 -13 14 -23 29 -23 35 0 5 -18 31 -40 57 -22 26 -40 53
-40 59 0 6 -4 11 -9 11 -5 0 -25 23 -45 50 l-36 50 -295 0 -295 0 0 -330z"/>
<path d="M740 10494 c0 -11 24 -50 62 -100 21 -28 38 -54 38 -57 0 -3 10 -17
23 -30 12 -13 40 -47 62 -76 22 -29 48 -62 58 -73 9 -12 17 -27 17 -35 0 -7 4
-13 9 -13 5 0 18 -15 30 -32 11 -18 26 -42 33 -53 7 -11 18 -24 25 -30 13 -11
69 -86 96 -127 l17 -28 655 0 c360 0 655 1 655 3 0 5 -140 290 -150 307 -6 8
-23 43 -39 77 -16 35 -54 110 -83 168 l-53 105 -727 0 c-401 0 -728 -3 -728
-6z"/>
<path d="M2338 10495 c-3 -3 19 -54 48 -113 30 -59 54 -114 54 -124 0 -9 4
-18 8 -20 11 -4 72 -125 72 -142 0 -8 4 -16 10 -18 5 -1 25 -37 43 -78 18 -41
43 -94 55 -117 l22 -43 656 0 656 0 -5 33 c-2 17 -14 68 -27 112 -12 44 -30
116 -40 160 -10 44 -34 141 -53 215 l-34 135 -730 3 c-401 1 -732 0 -735 -3z"/>
<path d="M3944 10463 c4 -21 9 -60 13 -88 3 -27 10 -53 15 -56 5 -3 16 -39 23
-80 8 -41 24 -112 36 -159 11 -47 28 -119 37 -160 l17 -75 660 0 660 0 0 325
0 325 -734 3 -734 2 7 -37z"/>
<path d="M5545 10489 c-4 -5 -9 -154 -12 -330 l-6 -319 659 0 659 0 24 98 c13
53 29 117 37 142 7 25 23 87 35 139 11 52 25 102 29 110 13 27 30 94 33 131
l2 35 -727 3 c-506 1 -729 -1 -733 -9z"/>
<path d="M7153 10492 c-6 -4 -22 -43 -35 -87 -12 -44 -26 -81 -30 -83 -5 -2
-8 -16 -8 -31 0 -29 -25 -134 -61 -256 -11 -38 -27 -92 -35 -119 -8 -26 -14
-55 -14 -62 0 -12 104 -14 656 -14 l655 0 15 33 c8 17 18 39 23 47 14 27 38
73 118 230 44 85 91 178 106 205 50 97 66 133 60 139 -9 9 -1436 7 -1450 -2z"/>
<path d="M8748 10483 c-8 -10 -23 -33 -34 -50 -10 -18 -22 -33 -26 -33 -4 0
-8 -10 -8 -23 0 -12 -18 -54 -41 -92 -22 -39 -55 -99 -72 -135 -17 -36 -33
-67 -36 -70 -6 -5 -112 -212 -119 -231 -2 -5 266 -9 655 -9 l658 0 23 40 c12
22 29 40 37 40 8 0 15 6 15 13 0 13 38 67 180 251 14 18 60 79 103 137 44 57
90 116 104 131 14 14 22 31 19 37 -5 8 -221 11 -725 11 -671 0 -719 -1 -733
-17z"/>
<path d="M10330 10458 c-36 -46 -71 -87 -107 -125 -13 -13 -23 -28 -23 -33 0
-5 -37 -56 -82 -112 -46 -57 -86 -107 -90 -113 -4 -5 -20 -26 -36 -45 -15 -19
-44 -58 -64 -85 -20 -28 -46 -59 -57 -69 -12 -11 -21 -23 -21 -28 0 -4 214 -8
475 -8 l475 0 0 330 0 330 -218 0 -219 0 -33 -42z"/>
<path d="M0 9693 l0 -88 40 -29 c22 -17 40 -33 40 -36 0 -3 32 -37 71 -75 39
-39 82 -83 97 -99 90 -98 86 -96 180 -96 189 -1 1048 -1 1065 -1 14 1 6 17
-38 76 -30 41 -55 79 -55 85 0 5 -4 10 -9 10 -5 0 -19 15 -30 34 -12 18 -31
44 -44 57 -12 13 -36 44 -52 69 -16 25 -46 66 -67 91 -21 26 -38 51 -38 56 0
30 -57 33 -605 33 l-555 0 0 -87z"/>
<path d="M1270 9773 c0 -11 51 -86 80 -120 14 -16 31 -40 38 -54 7 -14 26 -39
43 -57 16 -17 29 -33 29 -36 0 -4 154 -212 170 -230 9 -9 1142 -21 1165 -12
11 4 7 21 -21 78 -19 40 -38 80 -43 88 -4 8 -12 24 -18 35 -5 11 -18 34 -27
50 -9 17 -26 50 -37 75 -12 25 -25 54 -30 65 -5 11 -22 43 -38 70 l-28 50
-641 3 c-353 1 -642 -1 -642 -5z"/>
<path d="M2680 9775 c0 -2 24 -53 54 -112 110 -219 136 -274 136 -288 0 -8 4
-15 9 -15 5 0 16 -19 23 -42 14 -40 17 -43 62 -51 73 -12 1113 -4 1126 9 7 7
6 25 -4 60 -8 27 -20 76 -26 109 -7 33 -18 80 -25 105 -7 25 -18 70 -25 100
-7 30 -17 72 -22 93 l-9 37 -649 0 c-358 0 -650 -2 -650 -5z"/>
<path d="M4110 9758 c0 -13 23 -113 50 -223 28 -110 50 -212 50 -227 0 -16 7
-31 18 -37 11 -6 237 -9 593 -8 l574 2 3 258 2 257 -645 0 -645 0 0 -22z"/>
<path d="M5526 9758 c-3 -13 -7 -127 -9 -254 l-4 -232 36 -6 c52 -8 1124 -7
1137 2 7 4 33 90 58 192 26 102 53 210 61 240 8 30 14 61 15 68 0 9 -135 12
-645 12 l-645 0 -4 -22z"/>
<path d="M6939 9753 c-6 -16 -13 -41 -16 -58 -2 -16 -11 -50 -18 -75 -7 -25
-20 -72 -29 -105 -10 -33 -21 -68 -27 -77 -5 -10 -9 -30 -9 -45 0 -16 -7 -47
-15 -71 -9 -24 -13 -48 -10 -53 8 -12 1145 -12 1163 0 8 5 40 60 72 122 31 63
69 134 84 159 14 25 30 56 36 70 5 14 23 50 40 81 16 31 30 62 30 68 0 8 -175
11 -645 11 l-645 0 -11 -27z"/>
<path d="M8363 9765 c-7 -8 -13 -20 -13 -28 0 -8 -8 -25 -18 -38 -10 -13 -56
-98 -101 -189 -46 -91 -92 -180 -103 -197 -11 -18 -17 -37 -13 -43 7 -12 1144
-14 1161 -2 5 4 23 25 39 47 17 22 32 42 35 45 3 3 29 37 57 75 29 39 56 75
61 80 4 6 47 62 96 125 49 63 93 121 99 128 15 19 -1283 17 -1300 -3z"/>
<path d="M9756 9725 c-27 -30 -60 -70 -74 -90 -14 -19 -29 -35 -34 -35 -4 0
-8 -6 -8 -12 0 -7 -18 -33 -40 -58 -22 -24 -40 -48 -40 -53 0 -7 -60 -86 -129
-168 -17 -20 -28 -39 -24 -43 11 -11 1127 -7 1159 5 16 5 43 28 59 49 17 22
35 39 40 40 6 0 23 18 39 40 17 22 34 40 38 40 5 0 20 12 33 28 23 26 24 33
25 170 l0 142 -498 0 -498 0 -48 -55z"/>
<path d="M0 9370 l0 -100 105 0 c58 0 105 2 105 4 0 8 -173 177 -192 187 -17
9 -18 4 -18 -91z"/>
<path d="M10747 9316 c-53 -47 -50 -56 19 -56 l34 0 0 50 c0 28 -1 50 -2 50
-2 -1 -25 -20 -51 -44z"/>
<path d="M0 9000 l0 -210 334 0 c184 0 337 4 340 8 3 5 -15 28 -40 53 -25 24
-76 76 -114 114 -118 119 -184 185 -215 216 l-30 29 -137 0 -138 0 0 -210z"/>
<path d="M432 9201 c-21 -13 370 -399 412 -406 44 -8 993 -2 1001 7 8 7 -21
62 -46 89 -23 23 -99 125 -99 131 0 3 -13 20 -30 38 -16 18 -30 38 -30 45 0 7
-7 15 -14 18 -8 3 -23 21 -32 39 -9 18 -22 36 -28 40 -15 11 -1118 10 -1134
-1z"/>
<path d="M1690 9203 c0 -14 43 -74 111 -157 14 -17 45 -60 70 -95 24 -36 54
-75 67 -87 12 -13 22 -30 22 -39 0 -8 12 -20 26 -25 29 -11 1009 -13 1035 -2
14 6 13 14 -12 62 -16 30 -36 71 -45 90 -54 118 -106 227 -113 240 -7 13 -84
15 -585 18 -317 1 -576 -1 -576 -5z"/>
<path d="M2967 9203 c-6 -9 183 -395 198 -405 12 -9 1055 -11 1055 -2 0 4 -5
25 -11 48 -41 157 -61 240 -73 301 l-11 60 -577 3 c-317 1 -579 -1 -581 -5z"/>
<path d="M4245 9168 c4 -24 14 -67 21 -96 8 -29 14 -64 14 -78 0 -13 4 -32 9
-42 12 -23 28 -79 36 -124 l6 -38 534 0 535 0 0 210 0 210 -581 0 -581 0 7
-42z"/>
<path d="M5510 9000 l0 -210 527 2 526 3 9 30 c5 17 12 37 15 45 12 31 65 227
73 272 5 27 12 52 15 58 4 7 -191 10 -579 10 l-586 0 0 -210z"/>
<path d="M6792 9198 c-7 -7 -12 -24 -12 -39 0 -15 -4 -30 -9 -33 -5 -3 -11
-20 -14 -38 -13 -83 -56 -238 -69 -252 -4 -6 -8 -18 -8 -28 0 -17 26 -18 528
-18 l528 0 22 45 c12 25 26 45 32 45 5 0 10 6 10 14 0 14 59 137 70 146 3 3
12 21 20 40 8 19 16 37 19 40 3 3 16 24 28 48 l21 42 -577 0 c-435 0 -580 -3
-589 -12z"/>
<path d="M8080 9203 c-8 -2 -33 -40 -54 -83 -22 -44 -43 -80 -47 -80 -5 0 -13
-18 -19 -40 -6 -22 -14 -40 -18 -40 -5 0 -16 -24 -27 -52 -10 -29 -27 -64 -37
-77 -10 -13 -18 -28 -18 -32 0 -5 236 -9 525 -9 407 0 527 3 535 13 6 6 21 26
33 43 32 46 139 187 152 200 20 22 50 59 84 104 19 25 39 48 45 52 11 8 -1127
9 -1154 1z"/>
<path d="M9352 9203 c-7 -3 -31 -31 -53 -64 -22 -32 -43 -59 -47 -59 -4 0 -16
-16 -27 -36 -11 -20 -39 -57 -62 -83 -24 -25 -45 -54 -49 -63 -3 -10 -12 -18
-20 -18 -8 0 -14 -6 -14 -12 0 -7 -9 -24 -20 -38 -11 -14 -20 -28 -20 -32 0
-5 234 -8 520 -8 l521 0 48 45 c26 25 53 45 60 45 6 0 11 6 11 13 0 16 52 67
68 67 7 0 12 5 12 12 0 16 51 68 67 68 7 0 13 6 13 13 0 7 18 26 40 43 22 16
40 33 40 37 0 4 12 18 27 31 15 13 23 28 19 35 -6 8 -147 11 -564 10 -306 0
-563 -3 -570 -6z"/>
<path d="M10564 9138 c-43 -39 -83 -77 -87 -85 -4 -7 -15 -13 -22 -13 -8 0
-15 -4 -15 -9 0 -11 -141 -151 -152 -151 -4 0 -8 -6 -8 -13 0 -7 -13 -23 -30
-35 -16 -13 -30 -27 -30 -32 0 -6 109 -10 290 -10 l290 0 0 210 0 210 -78 0
-79 0 -79 -72z"/>
<path d="M1345 8740 l-468 -5 58 -57 c32 -32 62 -58 67 -58 5 0 16 -7 24 -15
13 -13 82 -15 495 -15 263 0 479 2 479 5 0 15 -43 87 -67 113 -22 23 -38 31
-74 34 -26 1 -257 1 -514 -2z"/>
<path d="M3582 8742 c-217 -1 -392 -6 -390 -11 2 -4 19 -38 38 -74 l34 -67
496 2 c432 3 495 5 495 18 -2 50 -18 121 -28 125 -24 7 -261 10 -645 7z"/>
<path d="M4387 8742 c-37 -3 -38 -3 -32 -40 3 -20 11 -54 17 -75 l11 -37 506
2 506 3 3 73 3 72 -28 0 c-434 3 -957 4 -986 2z"/>
<path d="M6843 8742 c-192 -3 -175 5 -198 -90 -9 -40 -10 -55 -1 -58 6 -2 231
-3 500 -2 l489 3 31 60 c17 33 35 63 41 67 5 4 7 9 4 12 -6 6 -625 12 -866 8z"/>
<path d="M0 8665 l0 -75 443 0 c391 1 440 2 423 15 -11 8 -16 15 -11 15 5 0
-17 27 -50 60 l-59 60 -373 0 -373 0 0 -75z"/>
<path d="M2040 8727 c0 -7 14 -26 30 -42 17 -16 30 -35 30 -42 0 -8 8 -17 18
-20 9 -4 23 -13 30 -20 17 -17 967 -19 977 -3 8 12 -29 95 -53 123 -14 16 -52
17 -524 17 -413 0 -508 -2 -508 -13z"/>
<path d="M5506 8724 c-3 -9 -6 -35 -6 -59 0 -82 -47 -75 511 -75 467 0 500 1
505 18 3 9 10 26 14 37 5 11 11 37 14 58 l5 37 -519 0 c-463 0 -519 -2 -524
-16z"/>
<path d="M7818 8726 c-10 -7 -18 -22 -18 -32 0 -10 -7 -32 -15 -48 -31 -59
-59 -56 479 -56 l493 0 29 43 c16 23 39 50 52 60 12 10 22 25 22 33 0 20
-1015 21 -1042 0z"/>
<path d="M8978 8723 c-34 -40 -88 -115 -88 -124 0 -10 892 -11 957 -1 33 6 55
20 107 70 36 34 66 64 66 67 0 3 -231 5 -513 5 -477 0 -515 -1 -529 -17z"/>
<path d="M10150 8730 c0 -5 -7 -10 -15 -10 -8 0 -15 -4 -15 -9 0 -12 -55 -67
-75 -74 -20 -8 -19 -33 1 -41 9 -3 182 -6 385 -6 l369 0 0 75 0 75 -325 0
c-210 0 -325 -4 -325 -10z"/>
<path d="M0 8025 l0 -515 450 0 c288 0 451 4 455 10 4 6 6 61 5 123 -1 61 -1
117 -1 122 0 6 3 182 6 393 l6 382 -180 0 c-109 0 -182 -4 -186 -10 -4 -7 -12
-7 -25 0 -11 6 -123 10 -274 10 l-256 0 0 -515z m890 -209 c0 -3 -4 -8 -10
-11 -5 -3 -10 -1 -10 4 0 6 5 11 10 11 6 0 10 -2 10 -4z"/>
<path d="M1009 8533 c-1 -5 0 -39 2 -78 1 -38 1 -81 0 -95 -2 -14 -5 -207 -7
-429 -4 -320 -2 -406 8 -413 15 -9 971 -11 1005 -2 l21 6 1 509 0 509 -515 0
c-283 0 -515 -3 -515 -7z m631 -823 c0 -5 -2 -10 -4 -10 -3 0 -8 5 -11 10 -3
6 -1 10 4 10 6 0 11 -4 11 -10z m200 -70 c0 -5 -4 -10 -10 -10 -5 0 -10 5 -10
10 0 6 5 10 10 10 6 0 10 -4 10 -10z"/>
<path d="M2137 8533 c-3 -4 -8 -232 -13 -507 -6 -421 -5 -499 7 -507 15 -9
953 -12 1000 -2 l29 6 0 508 -1 509 -162 0 c-121 0 -169 -4 -189 -14 -23 -12
-28 -12 -28 -2 0 11 -62 14 -319 15 -176 1 -321 -2 -324 -6z m833 -893 c0 -5
-4 -10 -10 -10 -5 0 -10 5 -10 10 0 6 5 10 10 10 6 0 10 -4 10 -10z"/>
<path d="M3257 8533 c-12 -11 -13 -995 -2 -1014 6 -9 902 -10 979 -2 l46 6 0
508 0 508 -508 1 c-280 0 -512 -3 -515 -7z m583 -643 c0 -5 -5 -10 -11 -10 -5
0 -7 5 -4 10 3 6 8 10 11 10 2 0 4 -4 4 -10z"/>
<path d="M4380 8538 c-1 -2 -2 -229 -4 -505 -3 -369 -1 -505 8 -512 12 -10
954 -15 993 -5 l23 6 0 509 -1 509 -509 0 c-281 0 -510 -1 -510 -2z m830 -898
c0 -5 -4 -10 -10 -10 -5 0 -10 5 -10 10 0 6 5 10 10 10 6 0 10 -4 10 -10z"/>
<path d="M5500 8031 c0 -434 2 -510 14 -514 8 -3 238 -6 510 -7 l496 -1 0 515
0 515 -510 1 -510 0 0 -509z m660 485 c0 -3 -4 -8 -10 -11 -5 -3 -10 -1 -10 4
0 6 5 11 10 11 6 0 10 -2 10 -4z m-70 -630 c0 -3 -4 -8 -10 -11 -5 -3 -10 -1
-10 4 0 6 5 11 10 11 6 0 10 -2 10 -4z"/>
<path d="M6622 8028 l3 -513 505 0 505 0 0 510 0 510 -508 3 -507 2 2 -512z
m583 -148 c3 -5 1 -10 -4 -10 -6 0 -11 5 -11 10 0 6 2 10 4 10 3 0 8 -4 11
-10z"/>
<path d="M7739 8517 c-2 -12 -2 -242 1 -512 l5 -490 513 -2 512 -2 0 499 c0
274 -3 505 -6 514 -5 14 -62 16 -514 15 l-508 0 -3 -22z m591 -637 c0 -5 -4
-10 -10 -10 -5 0 -10 5 -10 10 0 6 5 10 10 10 6 0 10 -4 10 -10z"/>
<path d="M8866 8533 c-3 -3 -6 -232 -6 -509 l0 -502 22 -5 c29 -8 879 -8 951
0 l59 6 -2 476 c-2 262 -5 491 -7 509 l-5 32 -160 0 c-145 0 -162 -2 -185 -20
-15 -11 -29 -18 -32 -15 -3 4 1 10 8 14 7 5 9 11 5 14 -13 7 -640 8 -648 0z
m1004 -163 c0 -5 -5 -10 -11 -10 -5 0 -7 5 -4 10 3 6 8 10 11 10 2 0 4 -4 4
-10z m-460 -40 c0 -5 -5 -10 -11 -10 -5 0 -7 5 -4 10 3 6 8 10 11 10 2 0 4 -4
4 -10z m40 -450 c0 -5 -4 -10 -10 -10 -5 0 -10 5 -10 10 0 6 5 10 10 10 6 0
10 -4 10 -10z"/>
<path d="M9987 8533 c-4 -3 -7 -232 -7 -509 0 -448 2 -503 16 -508 9 -3 193
-6 410 -6 l394 0 0 514 0 514 -403 1 c-222 1 -407 -2 -410 -6z m653 -23 c0 -5
-4 -10 -10 -10 -5 0 -10 5 -10 10 0 6 5 10 10 10 6 0 10 -4 10 -10z"/>
<path d="M0 6911 l0 -509 33 -5 c27 -4 563 -3 799 2 l77 1 -1 498 c0 273 -3
503 -5 510 -4 9 -104 12 -454 12 l-449 0 0 -509z m887 337 c-3 -8 -6 -5 -6 6
-1 11 2 17 5 13 3 -3 4 -12 1 -19z m-557 -478 c0 -5 -4 -10 -10 -10 -5 0 -10
5 -10 10 0 6 5 10 10 10 6 0 10 -4 10 -10z m0 -134 c0 -3 -4 -8 -10 -11 -5 -3
-10 -1 -10 4 0 6 5 11 10 11 6 0 10 -2 10 -4z"/>
<path d="M1000 6910 c0 -401 3 -510 13 -510 6 0 219 -1 473 -3 254 -2 480 -1
504 2 l43 6 3 508 3 507 -520 0 -519 0 0 -510z m680 496 c0 -3 -4 -8 -10 -11
-5 -3 -10 -1 -10 4 0 6 5 11 10 11 6 0 10 -2 10 -4z m90 -806 c0 -5 -4 -10
-10 -10 -5 0 -10 5 -10 10 0 6 5 10 10 10 6 0 10 -4 10 -10z"/>
<path d="M2120 6910 l0 -510 22 -1 c175 -4 1000 0 1006 5 4 4 8 235 10 512 l2
504 -519 0 -520 0 -1 -510z m840 -390 c0 -5 -4 -10 -10 -10 -5 0 -10 5 -10 10
0 6 5 10 10 10 6 0 10 -4 10 -10z"/>
<path d="M3246 7227 c2 -319 2 -484 -2 -654 -2 -105 1 -165 7 -169 12 -7 960
-13 1002 -6 l27 5 0 508 0 509 -517 0 -518 0 1 -193z"/>
<path d="M4375 6917 c0 -276 4 -507 7 -513 6 -8 149 -11 510 -10 l503 1 2 513
2 512 -512 0 -512 0 0 -503z m665 489 c0 -3 -4 -8 -10 -11 -5 -3 -10 -1 -10 4
0 6 5 11 10 11 6 0 10 -2 10 -4z m307 -122 c-3 -3 -12 -4 -19 -1 -8 3 -5 6 6
6 11 1 17 -2 13 -5z m-267 -404 c0 -5 -8 -10 -17 -10 -15 0 -16 2 -3 10 19 12
20 12 20 0z"/>
<path d="M5499 7028 c-1 -547 1 -622 14 -630 13 -8 961 -9 996 -1 l23 6 -7
431 c-5 372 -6 499 -3 525 0 3 0 18 -1 34 l-1 27 -510 0 -510 0 -1 -392z m591
-258 c0 -5 -5 -10 -11 -10 -5 0 -7 5 -4 10 3 6 8 10 11 10 2 0 4 -4 4 -10z"/>
<path d="M6620 6911 c0 -455 2 -510 16 -515 23 -9 987 -7 1001 2 10 6 12 95 8
403 -6 465 -5 550 1 560 2 5 2 20 -2 34 l-6 25 -509 0 -509 0 0 -509z m620
-121 c0 -5 -2 -10 -4 -10 -3 0 -8 5 -11 10 -3 6 -1 10 4 10 6 0 11 -4 11 -10z
m-65 -60 c3 -5 1 -10 -4 -10 -6 0 -11 5 -11 10 0 6 2 10 4 10 3 0 8 -4 11 -10z"/>
<path d="M7747 7413 c-4 -3 -7 -232 -7 -509 l0 -502 24 -6 c12 -3 245 -6 515
-6 l492 0 -5 423 c-5 489 -5 432 -3 527 l2 75 -506 3 c-278 1 -509 -1 -512 -5z
m903 -893 c0 -5 -4 -10 -10 -10 -5 0 -10 5 -10 10 0 6 5 10 10 10 6 0 10 -4
10 -10z"/>
<path d="M8862 6916 c2 -277 7 -508 11 -513 5 -4 235 -9 512 -11 401 -2 504 0
507 10 2 7 2 239 0 516 l-4 502 -515 0 -514 0 3 -504z m908 -396 c0 -5 -4 -10
-10 -10 -5 0 -10 5 -10 10 0 6 5 10 10 10 6 0 10 -4 10 -10z"/>
<path d="M9987 7413 c-7 -6 1 -988 8 -1010 3 -9 101 -12 405 -13 l400 0 0 435
c0 288 -3 434 -10 430 -5 -3 -10 -2 -10 4 0 5 5 13 10 16 6 3 10 37 10 76 l0
69 -403 0 c-222 0 -407 -3 -410 -7z"/>
<path d="M0 5784 l0 -516 448 5 447 5 3 425 c3 395 2 426 -14 429 -16 3 -17 4
-1 20 13 12 17 34 17 82 l0 66 -450 0 -450 0 0 -516z m250 -144 c0 -5 -4 -10
-10 -10 -5 0 -10 5 -10 10 0 6 5 10 10 10 6 0 10 -4 10 -10z"/>
<path d="M1000 6293 c0 -5 -3 -234 -6 -510 l-5 -503 28 -1 c203 -8 543 -7 543
2 0 6 5 7 13 2 6 -4 110 -8 229 -8 l218 0 0 40 c0 22 3 253 6 513 l5 472 -516
0 c-283 0 -515 -3 -515 -7z"/>
<path d="M2120 5791 l0 -510 53 -6 c78 -9 964 -1 974 8 4 5 8 234 8 510 l0
502 -168 3 c-156 2 -170 1 -194 -18 -29 -22 -43 -19 -23 5 11 13 -23 15 -319
15 l-331 0 0 -509z m840 -401 c0 -5 -4 -10 -10 -10 -5 0 -10 5 -10 10 0 6 5
10 10 10 6 0 10 -4 10 -10z"/>
<path d="M3246 6103 c3 -288 2 -477 -2 -659 l-3 -162 37 -5 c51 -8 919 -8 965
0 l37 6 0 508 0 509 -518 0 -518 0 2 -197z m844 -713 c0 -5 -4 -10 -10 -10 -5
0 -10 5 -10 10 0 6 5 10 10 10 6 0 10 -4 10 -10z"/>
<path d="M4379 6297 c-5 -12 -2 -1010 3 -1013 12 -7 879 -14 951 -8 l68 7 -2
481 c0 264 0 486 1 491 1 6 2 18 1 27 -1 16 -35 17 -511 18 -280 0 -510 -1
-511 -3z m971 -141 c0 -2 -7 -6 -15 -10 -8 -3 -15 -1 -15 4 0 6 7 10 15 10 8
0 15 -2 15 -4z m-270 -406 c0 -5 -8 -10 -17 -10 -15 0 -16 2 -3 10 19 12 20
12 20 0z"/>
<path d="M5499 5903 c0 -543 1 -617 11 -623 4 -3 235 -5 512 -5 l503 0 -3 430
c-3 458 -3 494 2 540 7 55 8 55 -180 55 -146 0 -176 -2 -180 -15 -4 -8 -10
-15 -15 -15 -5 0 -9 7 -9 15 0 13 -42 15 -320 15 l-320 0 -1 -397z m976 197
c3 -5 1 -10 -4 -10 -6 0 -11 5 -11 10 0 6 2 10 4 10 3 0 8 -4 11 -10z m-385
-460 c0 -5 -5 -10 -11 -10 -5 0 -7 5 -4 10 3 6 8 10 11 10 2 0 4 -4 4 -10z"/>
<path d="M6627 6293 c-10 -9 -9 -1013 1 -1014 4 -1 235 -3 514 -4 l507 -2 -4
396 c-4 356 -4 452 -1 586 l1 40 -178 3 c-139 2 -177 0 -175 -10 2 -7 -4 -13
-12 -13 -8 0 -14 6 -12 13 1 9 -67 12 -316 12 -175 0 -322 -3 -325 -7z m613
-633 c0 -5 -2 -10 -4 -10 -3 0 -8 5 -11 10 -3 6 -1 10 4 10 6 0 11 -4 11 -10z
m-65 -60 c3 -5 1 -10 -4 -10 -6 0 -11 5 -11 10 0 6 2 10 4 10 3 0 8 -4 11 -10z"/>
<path d="M7747 6293 c-4 -3 -7 -228 -7 -499 0 -436 2 -494 16 -508 14 -14 71
-16 517 -14 l502 3 2 450 c1 248 0 478 -3 513 l-6 62 -179 0 c-152 0 -179 -2
-179 -15 0 -8 -4 -15 -10 -15 -5 0 -10 7 -10 15 0 13 -42 15 -318 15 -175 0
-322 -3 -325 -7z"/>
<path d="M8872 5788 l3 -513 513 -3 c486 -3 512 -2 513 15 6 103 -5 982 -12
995 -9 17 -42 18 -514 18 l-505 0 2 -512z m658 -148 c0 -5 -4 -10 -10 -10 -5
0 -10 5 -10 10 0 6 5 10 10 10 6 0 10 -4 10 -10z"/>
<path d="M9995 5793 c4 -280 9 -511 12 -515 2 -5 182 -8 399 -8 l394 0 0 515
0 515 -70 0 c-56 0 -70 -3 -70 -15 0 -8 -5 -15 -11 -15 -6 0 -9 7 -6 15 5 12
-40 14 -324 15 l-331 0 7 -507z m585 347 c0 -5 -5 -10 -11 -10 -5 0 -7 5 -4
10 3 6 8 10 11 10 2 0 4 -4 4 -10z m-20 -34 c0 -3 -4 -8 -10 -11 -5 -3 -10 -1
-10 4 0 6 5 11 10 11 6 0 10 -2 10 -4z"/>
<path d="M0 4661 l0 -519 443 2 442 1 2 380 c1 209 3 430 3 490 1 61 1 122 1
137 l-1 27 -445 1 -445 0 0 -519z m880 349 c0 -5 -4 -10 -10 -10 -5 0 -10 5
-10 10 0 6 5 10 10 10 6 0 10 -4 10 -10z"/>
<path d="M993 5163 c-10 -26 -10 -1000 0 -1010 8 -7 935 -8 997 -1 l25 3 1
383 c2 320 0 384 -12 389 -17 6 -19 24 -1 20 9 -1 13 27 15 109 3 109 2 112
-20 118 -13 3 -243 6 -511 6 -455 0 -488 -1 -494 -17z m1003 -730 c-10 -10
-19 5 -10 18 6 11 8 11 12 0 2 -7 1 -15 -2 -18z"/>
<path d="M2115 5168 c-3 -7 -4 -240 -3 -518 l3 -505 502 1 c276 1 508 4 515 7
10 3 13 109 13 513 l0 509 -513 3 c-404 2 -514 0 -517 -10z"/>
<path d="M3240 4665 l0 -515 123 -1 c119 -1 820 -1 885 0 l32 1 -1 515 -1 515
-177 0 c-124 0 -181 -4 -189 -12 -9 -9 -12 -9 -12 0 0 9 -80 12 -330 12 l-330
0 0 -515z"/>
<path d="M4371 4923 c-1 -142 -3 -371 -7 -509 -4 -202 -3 -254 8 -260 14 -9
870 -14 971 -6 l57 5 0 513 0 514 -173 0 c-118 0 -177 -4 -185 -12 -8 -8 -15
-8 -24 0 -10 7 -115 11 -330 12 l-316 0 -1 -257z"/>
<path d="M5500 4671 c0 -416 2 -511 14 -520 9 -8 148 -10 497 -7 266 2 492 5
502 5 16 1 17 30 15 514 l-3 512 -158 3 c-126 2 -163 -1 -187 -13 -27 -14 -30
-14 -30 0 0 13 -40 15 -325 15 l-325 0 0 -509z m590 415 c0 -3 -4 -8 -10 -11
-5 -3 -10 -1 -10 4 0 6 5 11 10 11 6 0 10 -2 10 -4z m426 -83 c-10 -10 -19 5
-10 18 6 11 8 11 12 0 2 -7 1 -15 -2 -18z m-34 -25 c-7 -7 -12 -8 -12 -2 0 14
12 26 19 19 2 -3 -1 -11 -7 -17z m-392 -458 c0 -5 -2 -10 -4 -10 -3 0 -8 5
-11 10 -3 6 -1 10 4 10 6 0 11 -4 11 -10z"/>
<path d="M6620 4677 c0 -299 4 -508 10 -517 8 -13 74 -15 503 -14 271 0 501 3
510 7 16 6 17 46 17 511 0 430 -2 505 -14 509 -8 3 -242 6 -520 6 l-506 1 0
-503z m812 341 c-7 -7 -12 -8 -12 -2 0 14 12 26 19 19 2 -3 -1 -11 -7 -17z
m146 8 c-7 -8 -15 -12 -17 -11 -5 6 10 25 20 25 5 0 4 -6 -3 -14z m-126 -58
c-7 -7 -12 -8 -12 -2 0 14 12 26 19 19 2 -3 -1 -11 -7 -17z"/>
<path d="M7750 4673 l0 -508 23 -10 c14 -7 176 -10 467 -8 245 1 466 3 493 3
l47 0 -2 513 -3 512 -512 3 -513 2 0 -507z m660 337 c0 -5 -2 -10 -4 -10 -3 0
-8 5 -11 10 -3 6 -1 10 4 10 6 0 11 -4 11 -10z m80 -490 c0 -5 -4 -10 -10 -10
-5 0 -10 5 -10 10 0 6 5 10 10 10 6 0 10 -4 10 -10z"/>
<path d="M8875 5167 c-9 -21 1 -1006 9 -1014 4 -5 236 -7 514 -5 l507 3 2 487
c1 268 -1 499 -4 515 l-5 27 -509 0 c-402 0 -511 -3 -514 -13z m975 -193 c0
-8 -5 -12 -10 -9 -6 4 -8 11 -5 16 9 14 15 11 15 -7z m-516 -589 c-4 -8 -8
-15 -10 -15 -2 0 -4 7 -4 15 0 8 4 15 10 15 5 0 7 -7 4 -15z"/>
<path d="M10000 4670 l0 -510 27 -11 c17 -6 144 -8 357 -4 182 3 350 5 374 5
l42 0 0 514 0 514 -400 1 -400 1 0 -510z"/>
<path d="M6624 4051 c-6 -7 -4 -994 2 -1018 l6 -23 502 0 c275 0 507 4 514 9
10 6 12 109 10 517 l-3 509 -513 5 c-283 3 -516 3 -518 1z m421 -411 c3 -5 1
-10 -4 -10 -6 0 -11 5 -11 10 0 6 2 10 4 10 3 0 8 -4 11 -10z"/>
<path d="M7754 4051 c-6 -7 -5 -1008 2 -1025 5 -14 60 -16 510 -16 l505 0 8
21 c7 22 4 983 -4 1006 -3 10 -120 13 -510 15 -279 2 -509 1 -511 -1z m416
-411 c0 -5 -4 -10 -10 -10 -5 0 -10 5 -10 10 0 6 5 10 10 10 6 0 10 -4 10 -10z"/>
<path d="M8887 4048 c-6 -4 -11 -26 -11 -50 1 -24 2 -247 3 -497 1 -272 6
-461 12 -472 9 -18 35 -19 504 -18 428 0 493 2 488 14 -3 8 0 15 6 15 6 0 11
-7 11 -16 0 -9 5 -12 12 -8 8 5 9 115 3 433 -5 234 -8 460 -7 501 2 41 -1 81
-6 87 -6 10 -127 13 -506 15 -274 2 -503 0 -509 -4z"/>
<path d="M0 3530 l0 -520 428 0 c235 0 432 4 439 8 9 6 14 140 19 520 l7 512
-447 0 -446 0 0 -520z m410 -170 c0 -5 -5 -10 -11 -10 -5 0 -7 5 -4 10 3 6 8
10 11 10 2 0 4 -4 4 -10z"/>
<path d="M987 4035 c-10 -25 -10 -1006 0 -1016 6 -6 213 -9 519 -7 l509 3 2
518 2 517 -514 0 c-442 0 -514 -2 -518 -15z m980 -121 c-3 -3 -12 -4 -19 -1
-8 3 -5 6 6 6 11 1 17 -2 13 -5z m-37 -24 c0 -5 -5 -10 -11 -10 -5 0 -7 5 -4
10 3 6 8 10 11 10 2 0 4 -4 4 -10z m40 -35 c0 -8 -4 -15 -10 -15 -5 0 -7 7 -4
15 4 8 8 15 10 15 2 0 4 -7 4 -15z m-280 -215 c0 -5 -4 -10 -10 -10 -5 0 -10
5 -10 10 0 6 5 10 10 10 6 0 10 -4 10 -10z m30 -40 c0 -5 -5 -10 -11 -10 -5 0
-7 5 -4 10 3 6 8 10 11 10 2 0 4 -4 4 -10z m210 -280 c0 -5 -4 -10 -10 -10 -5
0 -10 5 -10 10 0 6 5 10 10 10 6 0 10 -4 10 -10z"/>
<path d="M2112 3533 l3 -518 513 -3 512 -2 0 520 0 520 -515 0 -515 0 2 -517z
m668 503 c0 -3 -4 -8 -10 -11 -5 -3 -10 -1 -10 4 0 6 5 11 10 11 6 0 10 -2 10
-4z m337 -228 c-3 -8 -6 -5 -6 6 -1 11 2 17 5 13 3 -3 4 -12 1 -19z m-307
-168 c0 -5 -4 -10 -10 -10 -5 0 -10 5 -10 10 0 6 5 10 10 10 6 0 10 -4 10 -10z"/>
<path d="M3240 3828 c0 -123 -3 -345 -7 -494 -3 -149 -3 -283 1 -297 l6 -27
518 0 518 0 2 520 2 520 -520 0 -520 0 0 -222z"/>
<path d="M4368 4038 c-3 -7 -5 -240 -4 -518 l1 -505 518 -2 517 -3 0 520 -1
520 -513 0 c-402 0 -515 -3 -518 -12z"/>
<path d="M5502 3533 l3 -518 504 -3 c397 -2 506 0 513 10 4 7 8 241 8 521 l0
507 -515 0 -515 0 2 -517z m588 -213 c0 -5 -4 -10 -10 -10 -5 0 -10 5 -10 10
0 6 5 10 10 10 6 0 10 -4 10 -10z"/>
<path d="M10005 4038 c-2 -7 -3 -40 -1 -73 1 -33 4 -254 4 -492 2 -377 4 -434
18 -447 13 -14 63 -16 395 -16 l379 0 0 520 0 520 -395 0 c-308 0 -397 -3
-400 -12z m565 -398 c0 -5 -4 -10 -10 -10 -5 0 -10 5 -10 10 0 6 5 10 10 10 6
0 10 -4 10 -10z m-240 -320 c0 -5 -4 -10 -10 -10 -5 0 -10 5 -10 10 0 6 5 10
10 10 6 0 10 -4 10 -10z"/>
<path d="M0 2956 c0 -18 139 -26 392 -21 211 3 301 11 292 26 -3 5 -153 9
-345 9 -279 0 -339 -2 -339 -14z"/>
<path d="M996 2955 c4 -9 79 -13 267 -17 392 -8 617 1 617 24 0 6 -166 9 -444
7 -336 -2 -443 -5 -440 -14z"/>
<path d="M2207 2963 c-4 -3 -7 -13 -7 -21 0 -13 45 -14 369 -8 367 6 431 10
431 27 0 10 -783 12 -793 2z"/>
<path d="M3363 2963 c-80 -8 -43 -20 79 -26 230 -13 607 -1 703 21 39 9 -687
14 -782 5z"/>
<path d="M4440 2960 c0 -5 17 -13 38 -17 49 -10 798 -10 808 0 5 4 2 12 -6 17
-20 13 -840 13 -840 0z"/>
<path d="M5620 2960 l-25 -7 30 -9 c36 -10 810 -12 820 -2 25 25 -23 28 -403
27 -218 -1 -408 -4 -422 -9z"/>
<path d="M6767 2959 c18 -18 153 -28 414 -28 282 -1 425 7 409 23 -8 8 -142
12 -423 14 -326 3 -410 1 -400 -9z"/>
<path d="M7940 2961 c-23 -7 -22 -8 15 -15 51 -10 663 -18 734 -10 46 6 51 8
35 18 -22 13 -743 20 -784 7z"/>
<path d="M9076 2962 c-3 -5 6 -13 20 -16 32 -8 774 -10 782 -2 3 3 2 9 -1 13
-12 11 -793 17 -801 5z"/>
<path d="M10200 2960 c0 -5 15 -10 33 -11 17 0 55 -2 82 -4 121 -9 423 -15
453 -9 17 4 32 13 32 20 0 12 -52 14 -300 14 -193 0 -300 -4 -300 -10z"/>
<path d="M143 2903 l-143 -4 0 -44 0 -45 43 0 c78 1 230 19 236 28 3 5 24 12
46 15 94 14 115 20 115 32 0 11 -100 28 -139 23 -9 -1 -80 -4 -158 -5z"/>
<path d="M945 2903 c-99 -8 -222 -27 -232 -35 -6 -5 -33 -11 -59 -14 -46 -4
-68 -19 -58 -36 3 -5 204 -7 447 -6 437 3 442 3 482 26 22 12 47 22 56 22 9 0
30 5 47 11 25 8 29 13 19 23 -9 8 -100 12 -342 12 -181 0 -343 -1 -360 -3z"/>
<path d="M2025 2893 c-55 -8 -102 -17 -105 -21 -10 -14 -48 -31 -86 -38 -36
-7 -37 -7 -14 -16 14 -5 52 -9 85 -8 33 0 213 0 400 0 363 -1 471 8 512 40 16
12 41 20 64 20 75 0 38 17 -64 28 -143 17 -662 14 -792 -5z"/>
<path d="M3223 2891 c-43 -7 -82 -19 -88 -26 -5 -7 -19 -17 -30 -23 -49 -26
36 -32 418 -32 427 1 517 5 517 26 0 8 6 14 13 14 7 0 20 8 28 18 15 18 13 20
-33 32 -70 17 -715 11 -825 -9z"/>
<path d="M4475 2903 c-65 -5 -85 -12 -85 -31 0 -11 -13 -23 -32 -30 -26 -10
-30 -14 -19 -21 16 -10 885 -15 923 -6 22 6 56 55 37 55 -5 0 -8 5 -6 12 1 6
-13 14 -30 18 -31 7 -700 9 -788 3z"/>
<path d="M5643 2899 c-38 -9 -41 -12 -34 -32 4 -12 6 -27 4 -33 -6 -19 103
-24 523 -24 260 0 405 4 409 10 3 6 -1 13 -9 16 -9 3 -16 14 -16 23 0 41 -36
45 -445 47 -225 1 -408 -2 -432 -7z"/>
<path d="M6883 2902 c-35 -3 -43 -7 -43 -23 0 -10 6 -19 14 -19 7 0 16 -8 19
-18 2 -12 17 -22 37 -25 41 -9 837 -9 868 -1 13 4 22 14 22 25 0 14 -10 20
-40 25 -22 4 -40 10 -40 14 0 21 -177 31 -478 28 -174 -2 -336 -4 -359 -6z"/>
<path d="M8040 2893 c0 -7 11 -18 25 -23 14 -5 39 -20 56 -32 31 -23 31 -23
457 -25 420 -2 492 1 492 18 0 4 -16 11 -35 15 -19 3 -35 10 -35 15 0 5 -11 9
-24 9 -13 0 -26 4 -28 9 -11 31 -908 45 -908 14z"/>
<path d="M9290 2903 c-55 -6 -69 -13 -45 -23 11 -5 32 -9 48 -9 15 -1 27 -5
27 -11 0 -5 17 -12 38 -16 20 -4 40 -12 44 -17 7 -12 912 -16 924 -4 13 13 -5
20 -62 25 -34 3 -58 10 -61 18 -3 8 -19 14 -37 14 -17 0 -49 5 -71 11 -39 9
-735 20 -805 12z"/>
<path d="M10523 2903 c-83 -4 -118 -23 -43 -23 22 0 40 -4 40 -9 0 -5 15 -11
33 -14 17 -3 57 -12 87 -21 30 -9 79 -16 108 -16 l52 0 0 40 c0 40 0 40 -39
40 -21 0 -65 2 -97 4 -32 1 -96 1 -141 -1z"/>
<path d="M408 2768 c-123 -9 -275 -40 -288 -59 -3 -4 -29 -11 -59 -15 -30 -5
-54 -13 -53 -19 1 -7 182 -10 520 -10 534 0 565 2 642 42 14 7 35 13 48 13 12
0 22 5 22 10 0 6 8 10 18 10 10 0 27 6 37 14 18 13 17 14 -11 19 -39 8 -754 4
-876 -5z"/>
<path d="M1695 2773 c-43 -5 -116 -25 -145 -40 -14 -7 -33 -13 -43 -13 -10 0
-25 -7 -33 -15 -9 -8 -24 -15 -34 -15 -25 0 -34 -16 -13 -24 21 -8 966 -8
1030 0 26 4 55 14 63 24 8 9 36 25 62 34 49 18 65 32 53 44 -7 7 -881 11 -940
5z"/>
<path d="M3020 2770 c-55 -7 -196 -58 -165 -60 6 0 -2 -8 -17 -16 -16 -8 -28
-19 -28 -24 0 -11 1026 -14 1079 -4 38 8 100 87 79 101 -16 10 -861 13 -948 3z"/>
<path d="M4322 2773 c-28 -4 -111 -63 -88 -63 5 0 3 -7 -4 -15 -7 -9 -10 -19
-6 -23 10 -9 1076 -9 1099 0 16 7 17 10 4 29 -8 11 -13 28 -10 38 9 35 -71 41
-530 39 -238 0 -447 -3 -465 -5z"/>
<path d="M5640 2772 c-29 -6 -35 -11 -33 -30 2 -12 -1 -22 -6 -22 -19 0 3 -42
26 -51 27 -10 1043 -12 1081 -2 29 7 28 21 -3 29 -15 4 -25 13 -25 25 0 11
-14 26 -32 36 -30 16 -75 18 -503 19 -258 1 -486 -1 -505 -4z"/>
<path d="M6983 2767 c-47 -11 -54 -22 -22 -32 11 -4 18 -9 15 -12 -3 -3 9 -17
26 -32 l32 -26 500 -3 c474 -3 592 0 582 16 -2 4 -22 16 -43 27 -21 11 -41 25
-46 32 -21 33 -79 37 -542 39 -277 1 -477 -3 -502 -9z"/>
<path d="M8326 2771 c-50 -8 -57 -27 -14 -36 18 -4 62 -21 98 -38 l65 -32 514
-3 c298 -2 518 1 523 6 5 5 -4 14 -24 21 -18 7 -41 17 -50 22 -10 5 -29 9 -43
9 -14 0 -25 4 -25 10 0 11 -48 24 -140 39 -68 10 -835 12 -904 2z"/>
<path d="M9640 2769 c-29 -13 -29 -13 85 -49 39 -13 72 -26 75 -30 14 -20 202
-30 587 -30 l413 0 0 30 c0 27 -3 30 -33 30 -18 0 -37 4 -42 9 -6 5 -39 17
-75 27 -57 15 -119 18 -525 21 -313 2 -468 -1 -485 -8z"/>
<path d="M383 2622 l-383 -2 0 -75 0 -75 183 -1 c209 -2 212 -2 330 6 56 5 87
11 87 19 0 12 85 46 115 46 9 0 29 6 43 14 15 8 51 22 81 32 61 19 54 29 -24
35 -27 2 -222 3 -432 1z"/>
<path d="M4403 2622 c-239 -2 -283 -5 -283 -17 0 -8 -9 -19 -20 -25 -11 -6
-20 -18 -20 -26 0 -9 -15 -30 -32 -47 l-33 -32 505 -6 c278 -3 575 -3 660 0
l155 6 3 67 c3 63 1 68 -20 72 -31 7 -564 12 -915 8z"/>
<path d="M6038 2622 c-236 -1 -428 -6 -429 -10 -7 -86 -8 -119 -1 -130 9 -13
299 -17 994 -14 325 2 326 2 321 23 -3 11 -13 23 -22 27 -20 8 -49 40 -61 69
-7 16 -20 23 -52 27 -69 9 -294 11 -750 8z"/>
<path d="M7493 2620 c-221 -3 -405 -9 -410 -13 -4 -5 1 -13 12 -20 25 -13 65
-54 86 -87 16 -25 17 -25 214 -30 108 -3 407 -3 664 0 l466 5 -40 20 c-22 11
-42 22 -45 25 -9 9 -45 30 -70 41 -14 5 -48 21 -75 34 -46 22 -66 24 -225 27
-96 2 -356 1 -577 -2z"/>
<path d="M1210 2613 c-19 -3 -39 -9 -44 -14 -6 -5 -17 -9 -25 -9 -9 0 -29 -7
-45 -15 -15 -8 -44 -15 -62 -15 -23 0 -34 -5 -34 -14 0 -9 -15 -17 -40 -21
-22 -4 -40 -11 -40 -16 0 -5 -6 -9 -14 -9 -7 0 -27 -7 -42 -15 l-29 -15 40 0
c614 -3 1166 -1 1220 5 42 4 78 14 90 24 46 39 102 70 138 76 27 5 37 12 37
26 0 18 -17 19 -557 17 -307 0 -574 -3 -593 -5z"/>
<path d="M2660 2611 c-24 -8 -118 -61 -143 -81 -7 -5 -25 -21 -42 -34 l-30
-25 35 -1 c156 -5 1196 -1 1237 4 43 6 52 12 57 32 4 13 20 37 36 54 34 35 37
45 14 54 -23 9 -1135 6 -1164 -3z"/>
<path d="M8586 2613 c-17 -4 -16 -6 5 -17 13 -7 23 -18 22 -24 -2 -7 5 -12 16
-12 31 0 109 -39 126 -63 l15 -22 678 -2 677 -3 -59 25 c-33 14 -70 25 -82 25
-13 0 -26 5 -29 10 -3 6 -15 10 -25 10 -11 0 -48 14 -82 30 -34 17 -74 30 -89
30 -15 0 -31 5 -34 10 -6 10 -1100 13 -1139 3z"/>
<path d="M10055 2611 c-15 -6 -11 -9 23 -14 23 -4 42 -12 42 -17 0 -6 10 -10
23 -10 12 0 34 -6 48 -14 14 -7 43 -16 65 -20 21 -4 57 -19 79 -33 38 -25 44
-26 252 -31 l213 -5 0 77 0 76 -362 -1 c-200 0 -372 -4 -383 -8z"/>
<path d="M2895 2420 l-600 -5 -45 -24 c-25 -13 -47 -26 -50 -30 -5 -7 -62 -38
-178 -96 -41 -20 -72 -39 -69 -41 4 -4 1418 -8 1528 -4 17 0 149 125 175 166
13 19 14 25 3 28 -29 10 -182 11 -764 6z"/>
<path d="M0 2355 l0 -64 43 14 c23 7 60 19 82 25 60 18 150 54 153 63 2 4 12
7 23 7 10 0 19 5 19 10 0 6 -60 10 -160 10 l-160 0 0 -65z"/>
<path d="M625 2408 c-22 -6 -51 -16 -65 -23 -14 -7 -45 -18 -70 -25 -25 -6
-58 -18 -75 -25 -16 -8 -50 -20 -75 -28 -25 -9 -58 -22 -75 -31 -16 -9 -38
-16 -48 -16 -24 0 -97 -23 -97 -31 0 -14 119 -15 800 -12 701 3 783 7 802 38
4 6 38 24 75 40 37 15 73 34 79 42 6 7 27 18 45 25 38 13 50 25 42 45 -4 11
-119 13 -652 12 -382 -1 -662 -6 -686 -11z"/>
<path d="M3960 2410 c0 -5 -7 -10 -15 -10 -8 0 -15 -5 -15 -11 0 -7 -29 -40
-64 -74 -113 -110 -184 -100 693 -100 620 0 767 2 778 13 9 9 13 40 13 93 0
65 -3 79 -16 79 -8 0 -12 5 -9 10 4 7 -225 10 -679 10 -451 0 -686 -3 -686
-10z"/>
<path d="M5616 2403 c-10 -25 5 -172 18 -180 18 -12 1528 -5 1540 7 7 7 6 10
-2 10 -7 0 -12 6 -12 14 0 8 -9 17 -19 21 -11 3 -23 15 -26 26 -4 10 -13 19
-21 19 -8 0 -14 7 -14 15 0 8 -6 15 -13 15 -8 0 -27 16 -43 35 l-29 35 -686 0
c-639 0 -687 -1 -693 -17z"/>
<path d="M7290 2408 c0 -15 65 -88 78 -88 5 0 14 -10 21 -22 7 -13 29 -35 48
-50 l36 -28 776 0 c839 0 819 -1 683 51 -35 13 -71 31 -80 39 -9 8 -57 35
-107 60 l-90 45 -682 3 c-547 2 -683 0 -683 -10z"/>
<path d="M8960 2411 c0 -16 41 -39 83 -46 27 -5 37 -12 37 -26 0 -15 7 -19 35
-19 31 0 108 -38 125 -62 3 -4 25 -14 49 -23 35 -12 114 -15 459 -15 1041 -1
1052 -1 1052 14 0 15 -21 26 -49 26 -9 0 -33 8 -54 19 -20 10 -67 27 -104 37
-38 10 -70 21 -73 24 -3 4 -50 22 -105 41 l-100 34 -677 3 c-452 2 -678 -1
-678 -7z"/>
<path d="M10630 2410 c0 -5 9 -10 19 -10 11 0 22 -4 25 -9 4 -5 24 -12 46 -16
22 -4 42 -11 46 -16 14 -23 34 -8 34 26 l0 35 -85 0 c-50 0 -85 -4 -85 -10z"/>
<path d="M6 2162 c-3 -3 -6 -68 -6 -144 l0 -138 223 -2 c122 -1 348 -1 502 1
294 3 355 11 401 52 11 11 27 19 36 19 9 0 21 7 28 15 6 8 22 17 33 21 12 4
36 17 52 29 17 12 77 46 134 74 58 29 114 59 125 67 18 13 -74 14 -751 13
-424 0 -774 -3 -777 -7z"/>
<path d="M1848 2163 c-21 -2 -67 -22 -103 -44 -35 -21 -69 -39 -74 -39 -5 0
-11 -3 -13 -7 -6 -15 -63 -50 -100 -62 -20 -7 -47 -20 -60 -30 -13 -10 -45
-26 -73 -36 -27 -10 -60 -29 -73 -42 l-23 -23 38 -1 c21 -1 438 0 927 1 607 1
896 5 910 12 12 6 28 14 36 18 8 4 20 18 27 31 7 13 34 47 61 74 99 102 125
137 111 146 -13 8 -1514 10 -1591 2z"/>
<path d="M3730 2162 c-9 -4 -34 -27 -55 -51 -22 -25 -57 -62 -77 -84 -21 -22
-38 -42 -38 -45 0 -6 -38 -40 -67 -59 -32 -21 -29 -43 5 -44 155 -3 1824 -5
1845 -1 20 3 25 7 15 13 -9 6 -7 9 9 9 30 0 35 12 16 46 -10 18 -18 64 -21
119 -2 50 -9 93 -16 97 -14 10 -1595 9 -1616 0z"/>
<path d="M5620 2125 c0 -25 5 -45 10 -45 6 0 10 -33 10 -80 0 -47 -4 -80 -10
-80 -5 0 -10 -9 -10 -20 0 -25 -88 -24 995 -21 605 2 902 6 906 13 7 11 -38
68 -53 68 -5 0 -26 17 -46 38 -21 20 -52 48 -70 62 -17 14 -32 29 -32 33 0 5
-15 23 -32 40 l-33 32 -817 3 -818 2 0 -45z"/>
<path d="M7540 2161 c0 -15 150 -161 166 -161 11 0 13 -6 9 -20 -4 -14 -2 -20
9 -20 9 0 22 -13 31 -30 9 -16 22 -30 30 -30 8 0 15 -5 15 -10 0 -14 1862 -9
1866 5 4 11 -45 38 -126 68 -30 11 -57 23 -60 27 -3 3 -39 23 -80 43 -79 39
-151 78 -160 87 -3 3 -25 14 -50 25 -43 19 -80 20 -847 23 -512 2 -803 -1
-803 -7z"/>
<path d="M9450 2159 c0 -5 17 -17 38 -26 20 -8 49 -24 64 -34 14 -11 35 -19
46 -19 11 0 25 -6 31 -13 6 -8 29 -22 51 -32 22 -10 40 -22 40 -27 0 -4 16 -8
35 -8 19 0 35 -3 35 -8 0 -4 20 -18 45 -32 25 -14 45 -28 45 -32 0 -5 4 -8 9
-8 5 0 22 -5 38 -11 51 -21 65 -22 471 -26 l402 -4 0 146 0 145 -675 0 c-465
0 -675 -3 -675 -11z"/>
<path d="M183 1823 l-183 -3 0 -210 0 -210 74 0 c72 0 80 3 188 59 151 78 228
120 259 142 14 10 37 21 52 24 15 4 27 10 27 15 0 4 19 15 43 25 23 10 50 26
60 34 10 8 45 27 79 42 33 15 70 35 82 45 11 11 28 22 36 26 8 4 -82 7 -201 7
-119 1 -243 2 -275 4 -32 2 -141 2 -241 0z"/>
<path d="M1275 1822 c-68 -3 -130 -21 -190 -54 -27 -15 -71 -37 -97 -49 -27
-12 -48 -25 -48 -30 0 -5 -8 -9 -17 -9 -9 0 -24 -6 -32 -14 -9 -8 -81 -46
-161 -86 -80 -40 -156 -80 -170 -89 -14 -10 -45 -26 -70 -37 -25 -10 -53 -27
-62 -36 -17 -17 38 -18 1163 -18 875 0 1186 3 1202 12 23 12 47 33 47 41 0 10
59 67 69 67 6 0 11 7 11 16 0 8 24 41 54 72 88 94 139 152 132 152 -3 0 3 9
14 20 27 27 25 40 -7 41 -57 3 -1790 4 -1838 1z"/>
<path d="M3443 1822 c-27 -2 -50 -12 -67 -27 -15 -14 -35 -29 -46 -35 -11 -6
-20 -16 -20 -23 -1 -16 -35 -57 -49 -57 -6 0 -16 -10 -22 -22 -7 -13 -52 -67
-101 -122 -49 -54 -93 -107 -99 -117 -9 -18 23 -19 1181 -19 943 0 1192 3
1195 13 8 20 -10 395 -19 404 -7 7 -1855 12 -1953 5z"/>
<path d="M5671 1822 l-54 -3 7 -117 c3 -64 9 -159 12 -209 l7 -93 1194 0
c1134 0 1193 1 1184 18 -5 9 -33 41 -63 70 -29 28 -109 108 -178 177 -69 69
-131 125 -137 125 -7 0 -13 7 -13 15 0 11 -12 15 -42 16 -88 3 -1865 4 -1917
1z"/>
<path d="M7885 1820 l-29 -5 52 -55 c29 -30 52 -60 52 -67 0 -7 9 -13 19 -13
11 0 49 -32 88 -72 37 -39 99 -102 137 -140 l70 -68 1184 0 c1277 0 1228 -2
1114 49 -26 12 -54 26 -62 31 -8 5 -64 34 -125 63 -105 52 -213 108 -245 127
-30 17 -107 50 -118 50 -7 0 -20 8 -31 19 -29 29 -148 72 -226 82 -73 10
-1828 9 -1880 -1z"/>
<path d="M10242 1822 l-134 -3 34 -22 c18 -12 74 -42 123 -66 50 -25 92 -48
95 -51 3 -4 32 -17 65 -30 33 -13 66 -29 74 -34 16 -13 143 -80 191 -102 19
-9 47 -25 62 -35 14 -11 31 -19 37 -19 8 0 11 56 11 179 l0 179 -34 6 c-31 6
-183 5 -524 -2z"/>
<path d="M295 1331 c-37 -7 -169 -72 -257 -128 l-38 -23 0 -255 0 -255 1053 0
1052 0 48 44 c26 24 47 46 47 50 0 3 21 27 46 53 26 27 68 73 93 103 26 30 67
76 92 102 24 25 49 52 56 60 7 7 35 36 63 63 27 28 50 53 50 56 0 3 25 31 56
62 31 31 53 61 49 66 -7 12 -2340 14 -2410 2z"/>
<path d="M2982 1333 c-25 -5 -79 -56 -153 -145 -26 -32 -59 -70 -73 -85 -15
-15 -29 -36 -32 -45 -3 -10 -11 -18 -19 -18 -7 0 -21 -12 -30 -27 -10 -16 -40
-50 -67 -77 -26 -27 -48 -52 -48 -57 0 -4 -23 -32 -51 -61 -83 -87 -89 -95
-89 -106 0 -6 -10 -18 -22 -26 -20 -15 119 -16 1503 -16 960 0 1529 4 1535 10
5 5 7 59 3 137 -4 70 -10 216 -13 323 -3 107 -6 196 -6 198 0 4 -2414 -1
-2438 -5z"/>
<path d="M5655 1330 c-6 -10 -2 -91 15 -275 5 -60 12 -157 14 -215 3 -58 9
-118 14 -135 l8 -30 1522 -3 c837 -1 1522 0 1522 3 0 3 -100 107 -222 230
-123 124 -269 272 -324 330 l-102 105 -1220 0 c-778 0 -1223 -4 -1227 -10z"/>
<path d="M8360 1328 c0 -13 39 -54 198 -205 52 -48 168 -160 258 -248 189
-184 184 -179 211 -194 16 -8 263 -11 897 -11 l876 0 -2 333 -3 332 -1217 3
c-971 2 -1218 0 -1218 -10z"/>
<path d="M23 582 l-23 -3 0 -289 0 -289 750 -1 750 0 15 31 c9 16 27 35 40 41
14 6 27 20 31 30 3 11 52 65 108 122 57 56 105 110 109 119 3 9 22 27 41 39
20 13 36 27 36 31 0 5 12 21 28 36 62 62 121 130 114 134 -8 5 -1965 4 -1999
-1z m817 -532 c0 -5 -6 -10 -14 -10 -8 0 -18 5 -21 10 -3 6 3 10 14 10 12 0
21 -4 21 -10z"/>
<path d="M2305 580 c-11 -4 -51 -46 -90 -93 -38 -47 -75 -86 -82 -86 -6 -1
-14 -10 -18 -20 -3 -11 -33 -48 -65 -82 -33 -35 -60 -67 -60 -71 0 -5 -19 -28
-42 -52 -118 -120 -128 -136 -88 -136 22 0 28 -25 8 -33 -7 -3 157 -6 364 -6
323 -1 377 1 372 13 -5 13 1 13 42 0 60 -18 398 -20 456 -2 30 9 44 9 58 0 26
-16 1677 -17 1682 -1 2 7 17 7 48 0 25 -6 163 -11 308 -11 l264 0 -7 282 c-4
156 -11 288 -16 294 -11 14 -3101 18 -3134 4z m1315 -300 c0 -5 -9 -10 -20
-10 -11 0 -20 5 -20 10 0 6 9 10 20 10 11 0 20 -4 20 -10z m-380 -30 c0 -5 -8
-10 -17 -10 -15 0 -16 2 -3 10 19 12 20 12 20 0z m-497 -87 c-13 -2 -33 -2
-45 0 -13 2 -3 4 22 4 25 0 35 -2 23 -4z m710 0 c-7 -2 -19 -2 -25 0 -7 3 -2
5 12 5 14 0 19 -2 13 -5z m-773 -73 c0 -5 -9 -10 -21 -10 -11 0 -17 5 -14 10
3 6 13 10 21 10 8 0 14 -4 14 -10z m1360 -40 c0 -5 -9 -10 -20 -10 -11 0 -20
5 -20 10 0 6 9 10 20 10 11 0 20 -4 20 -10z"/>
<path d="M5704 579 c-3 -6 -3 -31 1 -58 3 -26 10 -122 15 -212 4 -90 14 -197
20 -236 14 -81 13 -80 90 -62 31 7 46 7 48 -1 3 -7 151 -10 478 -10 301 1 473
4 469 10 -4 6 -13 10 -22 10 -9 0 -14 3 -10 6 3 4 25 -1 47 -10 37 -15 159
-16 1305 -16 696 0 1265 2 1265 5 0 2 -47 51 -105 108 -58 58 -105 110 -105
116 0 6 -4 11 -8 11 -8 0 -111 101 -271 264 l-83 86 -1564 -1 c-1000 0 -1566
-4 -1570 -10z m1616 -299 c0 -5 -7 -10 -15 -10 -8 0 -15 5 -15 10 0 6 7 10 15
10 8 0 15 -4 15 -10z m-337 -37 c-13 -2 -33 -2 -45 0 -13 2 -3 4 22 4 25 0 35
-2 23 -4z m844 -39 c-3 -3 -12 -4 -19 -1 -8 3 -5 6 6 6 11 1 17 -2 13 -5z
m-1244 -41 c-13 -2 -35 -2 -50 0 -16 2 -5 4 22 4 28 0 40 -2 28 -4z m930 0
c-7 -2 -19 -2 -25 0 -7 3 -2 5 12 5 14 0 19 -2 13 -5z m-1048 -43 c3 -5 -1
-10 -9 -10 -9 0 -16 5 -16 10 0 6 4 10 9 10 6 0 13 -4 16 -10z m118 -37 c-13
-2 -33 -2 -45 0 -13 2 -3 4 22 4 25 0 35 -2 23 -4z m1377 -33 c0 -13 -50 -13
-70 0 -11 7 -4 10 28 10 23 0 42 -4 42 -10z m-2160 -19 c0 -14 -18 -23 -30
-16 -6 4 -8 11 -5 16 8 12 35 12 35 0z"/>
<path d="M9120 585 c0 -6 280 -280 369 -361 36 -33 88 -82 116 -110 56 -56 90
-78 106 -69 6 4 7 -3 3 -19 l-6 -26 546 0 546 0 0 295 0 294 -840 1 c-462 0
-840 -2 -840 -5z m1267 -421 c-3 -3 -12 -4 -19 -1 -8 3 -5 6 6 6 11 1 17 -2
13 -5z"/>
<path d="M1800 10 c0 -5 10 -10 23 -10 18 0 19 2 7 10 -19 13 -30 13 -30 0z"/>
</g>
</svg>
